<svg width="25" height="25" viewBox="0 0 25 25" fill="none" xmlns="http://www.w3.org/2000/svg">
<path fill-rule="evenodd" clip-rule="evenodd" d="M12.668 24.9062C19.2954 24.9062 24.668 19.5337 24.668 12.9062C24.668 6.27883 19.2954 0.90625 12.668 0.90625C6.04055 0.90625 0.667969 6.27883 0.667969 12.9062C0.667969 19.5337 6.04055 24.9062 12.668 24.9062ZM8.26797 12.3063C9.0964 12.3063 9.76797 11.1646 9.76797 9.75625C9.76797 8.34792 9.0964 7.20625 8.26797 7.20625C7.43954 7.20625 6.76797 8.34792 6.76797 9.75625C6.76797 11.1646 7.43954 12.3063 8.26797 12.3063ZM18.568 9.75625C18.568 11.1646 17.8964 12.3063 17.068 12.3063C16.2395 12.3063 15.568 11.1646 15.568 9.75625C15.568 8.34792 16.2395 7.20625 17.068 7.20625C17.8964 7.20625 18.568 8.34792 18.568 9.75625ZM7.80168 15.4694C10.5838 16.2287 14.8836 16.3358 17.7635 15.4352C18.5996 15.1737 19.6481 15.8446 19.3195 16.6567C17.1254 22.0791 8.58882 22.1018 6.39455 16.6865C6.08227 15.9158 6.99947 15.2504 7.80168 15.4694Z" fill="#8894B6"/>
</svg>
