<svg width="1024" height="1024" viewBox="0 0 1024 1024" fill="none" xmlns="http://www.w3.org/2000/svg">
<path d="M346.749 133.324L361.513 178.631C376.296 223.997 396.668 267.346 422.157 307.681L493.496 420.567L531.127 173.718L557.005 420.567L598.575 354.805V306.987H628.801C643.021 284.489 655.019 260.66 664.627 235.841C666.482 231.051 668.337 226.263 670.195 221.477C680.695 194.542 691.88 167.88 701.636 140.67C712.391 110.659 709.197 81.2745 695.563 58.0802C675.229 23.5438 630.036 13.6901 624.354 12.4753C622.454 12.0444 620.593 11.6527 617.89 11.2807C585.567 6.63767 569.738 23.4261 542.391 27.0499C532.487 28.3448 518.044 28.3235 499.578 21.5204L499.552 21.5083C490.014 16.2987 463.371 3.40499 429.183 8.30299C424.05 9.02756 373.763 16.9418 352.019 58.5111C340.872 79.8837 337.993 105.938 346.436 132.325C346.534 132.658 346.651 132.971 346.749 133.324ZM571.505 166.851C578.723 168.04 584.544 173.86 585.733 181.078C587.698 192.997 577.551 203.16 565.606 201.217C558.375 200.041 552.543 194.209 551.367 186.978C549.426 175.035 559.586 164.889 571.505 166.851ZM528.331 123.768C540.273 121.829 550.416 131.988 548.456 143.904C547.268 151.121 541.449 156.942 534.233 158.134C522.311 160.102 512.144 149.951 514.09 138.003C515.267 130.773 521.1 124.941 528.331 123.768ZM494.667 166.851C506.586 164.889 516.746 175.035 514.805 186.978C513.63 194.209 507.797 200.041 500.567 201.217C488.622 203.16 478.474 192.997 480.439 181.078C481.628 173.86 487.45 168.04 494.667 166.851ZM651.643 306.987C658.523 283.983 670.315 262.747 686.206 244.747C706.891 221.316 727.56 197.868 747.985 174.227C772.589 145.744 806.871 133.931 838.96 139.671C861.645 143.746 882.84 161.2 888.795 166.137C888.874 166.215 888.971 166.274 889.05 166.352C903.664 178.635 912.421 196.521 913.87 215.542C915.986 243.399 912.578 245.573 922.901 273.939C928.151 288.376 978.869 298.132 1001.28 306.987H879.608V424.525H749.219V306.987L651.643 306.987ZM879.608 681.012H1001.28L927.113 753.082C912.127 774.592 898.59 801.528 889.794 835.496C884.094 843.136 873.946 854.714 858.099 864.332C853.613 867.055 834.591 878.28 813.042 879.69C783.873 881.571 754.489 869.19 733.861 844.076C716.49 822.945 699.443 801.554 682.441 780.135C660.59 752.609 645.632 720.26 638.798 685.785L637.852 681.012H749.219V558.968H879.608V681.012ZM335.564 768.754C316.444 790.46 297.913 812.674 278.245 833.811C256.519 857.162 228.957 867.858 202.099 866.389C162.077 864.214 132.556 828.62 128.873 824.134C127.619 822.645 126.405 821.137 124.799 818.923C105.856 792.36 113.495 770.576 104.112 744.639C100.723 735.256 94.1018 722.464 79.5855 709.182C79.5463 709.163 79.5272 709.143 79.5071 709.143C70.4957 703.05 46.792 685.302 35.4304 652.725C33.7459 647.808 17.6237 599.5 44.5595 561.123C58.4291 541.377 80.2321 526.841 107.54 522.199C118.11 520.402 122.917 518.938 150.003 515.125C159.482 513.791 168.337 512.482 176.47 511.237C202.769 507.211 229.352 505.478 255.952 506.044C272.664 506.399 289.376 506.755 306.088 507.11C360.068 515.457 414.048 523.803 468.029 532.15L388.696 690.123C382.416 702.628 374.578 716.462 364.799 730.954C354.913 745.606 344.904 758.17 335.564 768.754ZM49.7011 425.913C41.6297 412.792 38.3527 398.654 37.6694 385.39C36.3466 358.996 46.8763 333.537 65.3764 314.692C77.8974 301.962 91.8953 284.905 104.17 263.047C119.891 235.041 127.413 208.649 131.174 188.794C133.808 174.8 140.651 161.856 150.978 151.999C159.338 144.022 170.808 135.874 185.819 130.79C192.129 128.659 212.853 123.278 238.273 128.553C260.107 133.1 277.009 145.909 291.484 162.465C300.506 172.792 309.546 183.103 318.597 193.402C356.958 237.055 388.109 286.548 410.812 340.043L461.65 459.836L321.542 479.726C273.143 486.597 224.003 486.444 175.652 479.247C159.25 476.806 142.849 474.371 126.448 471.939C98.8885 467.827 67.5276 454.917 49.7011 425.913ZM681.537 867.369C689.568 891.797 691.508 924.903 672.78 954.229C657.245 978.52 627.273 997.287 597.027 996.464C559.65 995.446 534.927 964.338 498.295 969.059C468.362 972.918 467.99 976.953 442.308 987.884C424.736 995.348 404.813 995.798 387.182 988.452C387.085 988.393 386.986 988.354 386.889 988.315C379.778 985.318 354.527 974.505 340.481 956.247C320.617 930.369 315.366 894.5 329.354 859.552C329.514 859.153 329.673 858.753 329.833 858.354C361.829 778.341 405.87 703.689 460.873 637.353L525.25 559.713L627.08 731.878C640.779 755.039 652 779.58 660.556 805.093C667.55 825.858 674.681 846.564 681.537 867.369Z" fill="black"/>
<mask id="mask0_1975_4756" style="mask-type:luminance" maskUnits="userSpaceOnUse" x="29" y="7" width="973" height="990">
<path d="M346.749 133.324L361.513 178.631C376.296 223.997 396.668 267.346 422.157 307.681L493.496 420.567L531.127 173.718L557.005 420.567L598.575 354.805V306.987H628.801C643.021 284.489 655.019 260.66 664.627 235.841C666.482 231.051 668.337 226.263 670.195 221.477C680.695 194.542 691.88 167.88 701.636 140.67C712.391 110.659 709.197 81.2745 695.563 58.0802C675.229 23.5438 630.036 13.6901 624.354 12.4753C622.454 12.0444 620.593 11.6527 617.89 11.2807C585.567 6.63767 569.738 23.4261 542.391 27.0499C532.487 28.3448 518.044 28.3235 499.578 21.5204L499.552 21.5083C490.014 16.2987 463.371 3.40499 429.183 8.30299C424.05 9.02756 373.763 16.9418 352.019 58.5111C340.872 79.8837 337.993 105.938 346.436 132.325C346.534 132.658 346.651 132.971 346.749 133.324ZM571.505 166.851C578.723 168.04 584.544 173.86 585.733 181.078C587.698 192.997 577.551 203.16 565.606 201.217C558.375 200.041 552.543 194.209 551.367 186.978C549.426 175.035 559.586 164.889 571.505 166.851ZM528.331 123.768C540.273 121.829 550.416 131.988 548.456 143.904C547.268 151.121 541.449 156.942 534.233 158.134C522.311 160.102 512.144 149.951 514.09 138.003C515.267 130.773 521.1 124.941 528.331 123.768ZM494.667 166.851C506.586 164.889 516.746 175.035 514.805 186.978C513.63 194.209 507.797 200.041 500.567 201.217C488.622 203.16 478.474 192.997 480.439 181.078C481.628 173.86 487.45 168.04 494.667 166.851ZM651.643 306.987C658.523 283.983 670.315 262.747 686.206 244.747C706.891 221.316 727.56 197.868 747.985 174.227C772.589 145.744 806.871 133.931 838.96 139.671C861.645 143.746 882.84 161.2 888.795 166.137C888.874 166.215 888.971 166.274 889.05 166.352C903.664 178.635 912.421 196.521 913.87 215.542C915.986 243.399 912.578 245.573 922.901 273.939C928.151 288.376 978.869 298.132 1001.28 306.987H879.608V424.525H749.219V306.987L651.643 306.987ZM879.608 681.012H1001.28L927.113 753.082C912.127 774.592 898.59 801.528 889.794 835.496C884.094 843.136 873.946 854.714 858.099 864.332C853.613 867.055 834.591 878.28 813.042 879.69C783.873 881.571 754.489 869.19 733.861 844.076C716.49 822.945 699.443 801.554 682.441 780.135C660.59 752.609 645.632 720.26 638.798 685.785L637.852 681.012H749.219V558.968H879.608V681.012ZM335.564 768.754C316.444 790.46 297.913 812.674 278.245 833.811C256.519 857.162 228.957 867.858 202.099 866.389C162.077 864.214 132.556 828.62 128.873 824.134C127.619 822.645 126.405 821.137 124.799 818.923C105.856 792.36 113.495 770.576 104.112 744.639C100.723 735.256 94.1018 722.464 79.5855 709.182C79.5463 709.163 79.5272 709.143 79.5071 709.143C70.4957 703.05 46.792 685.302 35.4304 652.725C33.7459 647.808 17.6237 599.5 44.5595 561.123C58.4291 541.377 80.2321 526.841 107.54 522.199C118.11 520.402 122.917 518.938 150.003 515.125C159.482 513.791 168.337 512.482 176.47 511.237C202.769 507.211 229.352 505.478 255.952 506.044C272.664 506.399 289.376 506.755 306.088 507.11C360.068 515.457 414.048 523.803 468.029 532.15L388.696 690.123C382.416 702.628 374.578 716.462 364.799 730.954C354.913 745.606 344.904 758.17 335.564 768.754ZM49.7011 425.913C41.6297 412.792 38.3527 398.654 37.6694 385.39C36.3466 358.996 46.8763 333.537 65.3764 314.692C77.8974 301.962 91.8953 284.905 104.17 263.047C119.891 235.041 127.413 208.649 131.174 188.794C133.808 174.8 140.651 161.856 150.978 151.999C159.338 144.022 170.808 135.874 185.819 130.79C192.129 128.659 212.853 123.278 238.273 128.553C260.107 133.1 277.009 145.909 291.484 162.465C300.506 172.792 309.546 183.103 318.597 193.402C356.958 237.055 388.109 286.548 410.812 340.043L461.65 459.836L321.542 479.726C273.143 486.597 224.003 486.444 175.652 479.247C159.25 476.806 142.849 474.371 126.448 471.939C98.8885 467.827 67.5276 454.917 49.7011 425.913ZM681.537 867.369C689.568 891.797 691.508 924.903 672.78 954.229C657.245 978.52 627.273 997.287 597.027 996.464C559.65 995.446 534.927 964.338 498.295 969.059C468.362 972.918 467.99 976.953 442.308 987.884C424.736 995.348 404.813 995.798 387.182 988.452C387.085 988.393 386.986 988.354 386.889 988.315C379.778 985.318 354.527 974.505 340.481 956.247C320.617 930.369 315.366 894.5 329.354 859.552C329.514 859.153 329.673 858.753 329.833 858.354C361.829 778.341 405.87 703.689 460.873 637.353L525.25 559.713L627.08 731.878C640.779 755.039 652 779.58 660.556 805.093C667.55 825.858 674.681 846.564 681.537 867.369Z" fill="white"/>
</mask>
<g mask="url(#mask0_1975_4756)">
<path d="M509.5 1157C865.448 1157 1154 868.448 1154 512.5C1154 156.552 865.448 -132 509.5 -132C153.552 -132 -135 156.552 -135 512.5C-135 868.448 153.552 1157 509.5 1157Z" fill="url(#paint0_radial_1975_4756)"/>
</g>
<path d="M1000.86 336.367V651.629H908.986V529.578H719.829V651.629H627.953V336.367H719.829V453.915H908.986V336.367H1000.86Z" fill="#142A6D"/>
<defs>
<radialGradient id="paint0_radial_1975_4756" cx="0" cy="0" r="1" gradientUnits="userSpaceOnUse" gradientTransform="translate(509.5 512.5) scale(644.5)">
<stop stop-color="#64060A"/>
<stop offset="0.03217" stop-color="#78100A"/>
<stop offset="0.09045" stop-color="#98200B"/>
<stop offset="0.15646" stop-color="#B32D0C"/>
<stop offset="0.23101" stop-color="#C9380C"/>
<stop offset="0.31809" stop-color="#DA400D"/>
<stop offset="0.42582" stop-color="#E6460D"/>
<stop offset="0.57692" stop-color="#ED4A0D"/>
<stop offset="0.99634" stop-color="#EF4B0E"/>
</radialGradient>
</defs>
</svg>
