<svg width="12" height="12" viewBox="0 0 12 12" fill="none" xmlns="http://www.w3.org/2000/svg">
<path d="M7.25737 3.63627C7.42945 3.36338 7.57466 3.07433 7.69094 2.77327C7.71338 2.71517 7.73583 2.65709 7.75831 2.59904C7.88538 2.27231 8.02075 1.94891 8.13881 1.61884C8.26897 1.25481 8.23032 0.898372 8.06531 0.617023C7.81924 0.198095 7.27231 0.0785696 7.20355 0.063834C7.18056 0.058607 7.15804 0.0538557 7.12532 0.0493423C6.73416 -0.00697741 6.5426 0.196668 6.21165 0.240625C6.09178 0.256331 5.917 0.256073 5.69353 0.17355L5.69321 0.173404C5.57779 0.110212 5.25535 -0.0461901 4.8416 0.013223C4.77949 0.022012 4.17093 0.118013 3.90777 0.62225C3.77288 0.881502 3.73804 1.19754 3.84022 1.51762C3.8414 1.52166 3.84282 1.52546 3.844 1.52973L4.02267 2.07931C4.20158 2.6296 4.44811 3.15544 4.75658 3.6447L5.61991 5.01402L6.07533 2.01972L6.3885 5.01402L6.89157 4.21631M6.56398 1.93643C6.65133 1.95084 6.72177 2.02144 6.73617 2.10899C6.75994 2.25358 6.63714 2.37685 6.49258 2.35329C6.40508 2.33902 6.3345 2.26827 6.32028 2.18057C6.29678 2.03569 6.41974 1.91263 6.56398 1.93643ZM6.04149 1.41382C6.18601 1.3903 6.30876 1.51352 6.28504 1.65807C6.27067 1.74562 6.20025 1.81623 6.11291 1.83068C5.96863 1.85455 5.8456 1.73142 5.86914 1.58649C5.88339 1.49879 5.95398 1.42805 6.04149 1.41382ZM5.6341 1.93643C5.77833 1.91263 5.90129 2.03569 5.8778 2.18057C5.86358 2.26827 5.79299 2.33902 5.70549 2.35329C5.56093 2.37685 5.43813 2.25358 5.4619 2.10899C5.4763 2.02144 5.54675 1.95084 5.6341 1.93643ZM3.70864 9.23754C3.47726 9.50083 3.25299 9.7703 3.01497 10.0267C2.75205 10.3099 2.41849 10.4397 2.09346 10.4219C1.60912 10.3955 1.25186 9.96372 1.20729 9.90931C1.19211 9.89125 1.17741 9.87295 1.15798 9.8461C0.928729 9.52388 1.02118 9.25964 0.907626 8.94503C0.866613 8.83121 0.786485 8.67604 0.610811 8.51493C0.610336 8.51469 0.610105 8.51446 0.609862 8.51446C0.500806 8.44055 0.213946 8.22527 0.0764487 7.8301C0.0560638 7.77045 -0.139046 7.18448 0.186928 6.71897C0.354777 6.47944 0.618636 6.30312 0.949114 6.24681C1.07703 6.22501 1.1352 6.20726 1.46299 6.16101C1.57771 6.14482 1.68487 6.12894 1.78329 6.11384C2.10157 6.06501 2.42327 6.04398 2.74518 6.05085C2.94743 6.05516 3.14967 6.05948 3.35192 6.06379C4.00519 6.16503 4.65845 6.26627 5.31172 6.36752L4.35164 8.28374C4.27563 8.43543 4.18078 8.60324 4.06244 8.77903C3.9428 8.95676 3.82167 9.10916 3.70864 9.23754ZM0.249152 5.07887C0.151473 4.91971 0.111815 4.74821 0.103546 4.58731C0.087538 4.26716 0.214967 3.95833 0.438854 3.72974C0.590382 3.57533 0.759784 3.36842 0.908327 3.10329C1.09858 2.76357 1.18961 2.44343 1.23513 2.20259C1.26701 2.03284 1.34983 1.87583 1.4748 1.75626C1.57596 1.6595 1.71477 1.56066 1.89644 1.49899C1.9728 1.47315 2.2236 1.40787 2.53123 1.47186C2.79547 1.52702 3.00001 1.6824 3.17519 1.88321C3.28438 2.00849 3.39377 2.13356 3.5033 2.25849C3.96755 2.788 4.34454 3.38835 4.61928 4.03725L5.23452 5.49034L3.53894 5.73161C2.95322 5.81496 2.35854 5.8131 1.77339 5.72581C1.57491 5.6962 1.37642 5.66666 1.17793 5.63716C0.844414 5.58727 0.464887 5.43068 0.249152 5.07887ZM7.89558 10.4337C7.99277 10.7301 8.01624 11.1316 7.7896 11.4874C7.6016 11.782 7.23888 12.0097 6.87284 11.9997C6.42051 11.9873 6.12132 11.61 5.678 11.6672C5.31575 11.7141 5.31125 11.763 5.00045 11.8956C4.78779 11.9861 4.54669 11.9916 4.33332 11.9025C4.33214 11.9018 4.33095 11.9013 4.32977 11.9008C4.24371 11.8645 3.93812 11.7333 3.76815 11.5118C3.52775 11.1979 3.46421 10.7628 3.63348 10.3389C3.63542 10.3341 3.63735 10.3292 3.63929 10.3244C4.0265 9.35383 4.55947 8.4483 5.22512 7.64364L6.00421 6.70186L7.23654 8.79023C7.40233 9.07118 7.53812 9.36886 7.64166 9.67834C7.72631 9.93022 7.8126 10.1814 7.89558 10.4337Z" fill="#EF4B0E"/>
<path d="M7.93756 8.78609C7.81922 8.6103 7.72436 8.44248 7.64836 8.2908L6.68828 6.37458C7.34155 6.27333 7.99481 6.17209 8.64808 6.07085C8.85033 6.06653 9.05257 6.06222 9.25482 6.05791C9.57673 6.05104 9.89843 6.07207 10.2167 6.1209C10.3151 6.136 10.4223 6.15188 10.537 6.16806C10.8648 6.21432 10.923 6.23207 11.0509 6.25387C11.3814 6.31018 11.6452 6.4865 11.8131 6.72602C12.139 7.19153 11.9439 7.77751 11.9236 7.83715C11.7861 8.23232 11.4992 8.44761 11.3901 8.52151C11.3899 8.52151 11.3897 8.52175 11.3892 8.52199C11.2135 8.6831 11.1334 8.83826 11.0924 8.95208C10.9788 9.2667 11.0713 9.53094 10.842 9.85316C10.8226 9.88001 10.8079 9.8983 10.7927 9.91636C10.7481 9.97078 10.3909 10.4025 9.90654 10.4289C9.58151 10.4467 9.24795 10.317 8.98503 10.0337C8.74701 9.77735 8.52274 9.50789 8.29136 9.2446C8.17833 9.11622 8.0572 8.96382 7.93756 8.78609ZM10.8221 5.64421C10.6236 5.67372 10.4251 5.70326 10.2266 5.73287C9.64146 5.82016 9.04677 5.82201 8.46106 5.73867L6.76548 5.4974L7.38072 4.0443C7.65546 3.3954 8.03245 2.79506 8.4967 2.26555C8.60623 2.14062 8.71562 2.01555 8.82481 1.89027C8.99999 1.68945 9.20453 1.53408 9.46877 1.47892C9.7764 1.41493 10.0272 1.48021 10.1036 1.50605C10.2852 1.56772 10.424 1.66656 10.5252 1.76332C10.6502 1.88289 10.733 2.0399 10.7649 2.20965C10.8104 2.45049 10.9014 2.77063 11.0917 3.11035C11.2402 3.37548 11.4096 3.58239 11.5611 3.73679C11.785 3.96539 11.9125 4.27421 11.8965 4.59437C11.8882 4.75526 11.8485 4.92676 11.7508 5.08592C11.5351 5.43774 11.1556 5.59433 10.8221 5.64421Z" fill="#EF4B0E"/>
</svg>
