<svg width="22" height="23" viewBox="0 0 22 23" fill="none" xmlns="http://www.w3.org/2000/svg">
<path d="M7.68237 21.4632V18.0997C7.68237 17.2411 8.42041 16.545 9.33082 16.545H12.6588C13.096 16.545 13.5153 16.7088 13.8244 17.0004C14.1336 17.2919 14.3073 17.6874 14.3073 18.0997V21.4632C14.3045 21.8201 14.4529 22.1634 14.7196 22.4167C14.9863 22.67 15.3491 22.8125 15.7276 22.8125H17.9981C19.0585 22.8151 20.0765 22.4196 20.8272 21.7134C21.578 21.0071 22 20.0482 22 19.0481V9.46605C22 8.65821 21.6203 7.89193 20.9632 7.37364L13.2394 1.55596C11.8958 0.535918 9.97076 0.568852 8.66729 1.63418L1.1197 7.37364C0.431594 7.87665 0.0203237 8.6452 0 9.46605V19.0383C0 21.1227 1.7917 22.8125 4.00188 22.8125H6.22055C7.00668 22.8125 7.64558 22.2143 7.65127 21.473L7.68237 21.4632Z" fill="#8894B6"/>
</svg>
