<svg width="24" height="25" viewBox="0 0 24 25" fill="none" xmlns="http://www.w3.org/2000/svg">
<path d="M12.3915 0.657845C12.5832 0.485837 12.8367 0.395674 13.0961 0.40724C18.5812 0.571436 23.1652 4.55321 23.996 9.875C24.0013 9.90678 24.0013 9.93919 23.996 9.97096C24.0139 10.2228 23.9288 10.4712 23.7596 10.6613C23.5903 10.8514 23.3508 10.9674 23.0941 10.9838L13.8786 11.5916C13.5738 11.6186 13.2716 11.5183 13.0461 11.3154C12.8206 11.1124 12.6928 10.8256 12.694 10.5254L12.0746 1.47343V1.32416C12.0859 1.06958 12.1999 0.829854 12.3915 0.657845Z" fill="#8894B6"/>
<path d="M11.7597 13.9585L19.7472 13.4468L19.8015 13.4681C20.1445 13.4737 20.4712 13.6128 20.7096 13.8547C20.9481 14.0967 21.0788 14.4217 21.073 14.7582C20.7582 19.3447 17.3956 23.1769 12.8195 24.1642C8.24334 25.1515 3.55224 23.0568 1.30535 19.023C0.644668 17.8611 0.227165 16.5816 0.0773456 15.2593C0.0192378 14.8675 -0.00620358 14.4717 0.0012744 14.0758C0.0164191 9.19873 3.48877 4.98911 8.34737 3.95762C8.93554 3.84753 9.52524 4.1412 9.78185 4.67197C9.84573 4.76829 9.89686 4.87219 9.93399 4.98117C10.0251 6.38708 10.1195 7.77967 10.2136 9.16639C10.2879 10.2615 10.362 11.353 10.4339 12.4445C10.4302 12.7017 10.4706 12.9576 10.5534 13.2015C10.7484 13.6816 11.2338 13.9861 11.7597 13.9585Z" fill="#8894B6"/>
</svg>
