<svg width="24" height="24" viewBox="0 0 24 24" fill="none" xmlns="http://www.w3.org/2000/svg">
<path d="M9.325 11.25H17.7C17.9167 11.25 18.0958 11.1792 18.2375 11.0375C18.3792 10.8958 18.45 10.7167 18.45 10.5C18.45 10.2833 18.3792 10.1042 18.2375 9.9625C18.0958 9.82083 17.9167 9.75 17.7 9.75H9.325C9.10833 9.75 8.92917 9.82083 8.7875 9.9625C8.64583 10.1042 8.575 10.2833 8.575 10.5C8.575 10.7167 8.64583 10.8958 8.7875 11.0375C8.92917 11.1792 9.10833 11.25 9.325 11.25ZM9.325 13.5H13.45C13.6667 13.5 13.8458 13.4292 13.9875 13.2875C14.1292 13.1458 14.2 12.9667 14.2 12.75C14.2 12.5333 14.1292 12.3542 13.9875 12.2125C13.8458 12.0708 13.6667 12 13.45 12H9.325C9.10833 12 8.92917 12.0708 8.7875 12.2125C8.64583 12.3542 8.575 12.5333 8.575 12.75C8.575 12.9667 8.64583 13.1458 8.7875 13.2875C8.92917 13.4292 9.10833 13.5 9.325 13.5ZM9.325 9H17.7C17.9167 9 18.0958 8.92917 18.2375 8.7875C18.3792 8.64583 18.45 8.46667 18.45 8.25C18.45 8.03333 18.3792 7.85417 18.2375 7.7125C18.0958 7.57083 17.9167 7.5 17.7 7.5H9.325C9.10833 7.5 8.92917 7.57083 8.7875 7.7125C8.64583 7.85417 8.575 8.03333 8.575 8.25C8.575 8.46667 8.64583 8.64583 8.7875 8.7875C8.92917 8.92917 9.10833 9 9.325 9ZM6.5 19C6.1 19 5.75 18.85 5.45 18.55C5.15 18.25 5 17.9 5 17.5V3.5C5 3.1 5.15 2.75 5.45 2.45C5.75 2.15 6.1 2 6.5 2H20.5C20.9 2 21.25 2.15 21.55 2.45C21.85 2.75 22 3.1 22 3.5V17.5C22 17.9 21.85 18.25 21.55 18.55C21.25 18.85 20.9 19 20.5 19H6.5ZM3.5 22C3.1 22 2.75 21.85 2.45 21.55C2.15 21.25 2 20.9 2 20.5V5.75C2 5.53333 2.07083 5.35417 2.2125 5.2125C2.35417 5.07083 2.53333 5 2.75 5C2.96667 5 3.14583 5.07083 3.2875 5.2125C3.42917 5.35417 3.5 5.53333 3.5 5.75V20.5H18.25C18.4667 20.5 18.6458 20.5708 18.7875 20.7125C18.9292 20.8542 19 21.0333 19 21.25C19 21.4667 18.9292 21.6458 18.7875 21.7875C18.6458 21.9292 18.4667 22 18.25 22H3.5Z" fill="white"/>
</svg>
